<mxfile host="app.diagrams.net" modified="2022-05-24T21:44:46.072Z" agent="5.0 (X11)" etag="rVVGuia9kbbFvMZbbCdo" version="18.0.3" type="github">
  <diagram id="YfoiNxUPI32YgYTlC18Y" name="Page-1">
    <mxGraphModel dx="868" dy="452" grid="1" gridSize="10" guides="1" tooltips="1" connect="1" arrows="1" fold="1" page="1" pageScale="1" pageWidth="827" pageHeight="1169" math="0" shadow="0">
      <root>
        <mxCell id="0" />
        <mxCell id="1" parent="0" />
        <mxCell id="hM-VOWL4_1rulBcLeY6O-77" value="" style="rounded=0;whiteSpace=wrap;html=1;fillColor=none;gradientColor=#ffffff;" parent="1" vertex="1">
          <mxGeometry x="179" y="350" width="420" height="685" as="geometry" />
        </mxCell>
        <mxCell id="hM-VOWL4_1rulBcLeY6O-4" style="edgeStyle=orthogonalEdgeStyle;rounded=0;orthogonalLoop=1;jettySize=auto;html=1;endArrow=blockThin;endFill=0;" parent="1" source="hM-VOWL4_1rulBcLeY6O-1" edge="1">
          <mxGeometry relative="1" as="geometry">
            <mxPoint x="104" y="505" as="targetPoint" />
          </mxGeometry>
        </mxCell>
        <mxCell id="hM-VOWL4_1rulBcLeY6O-1" value="&lt;div&gt;Cliente&lt;/div&gt;" style="shape=umlActor;verticalLabelPosition=bottom;verticalAlign=top;html=1;outlineConnect=0;" parent="1" vertex="1">
          <mxGeometry x="89" y="665" width="30" height="60" as="geometry" />
        </mxCell>
        <mxCell id="hM-VOWL4_1rulBcLeY6O-2" value="Visitante" style="shape=umlActor;verticalLabelPosition=bottom;verticalAlign=top;html=1;outlineConnect=0;" parent="1" vertex="1">
          <mxGeometry x="89" y="425" width="30" height="60" as="geometry" />
        </mxCell>
        <mxCell id="hM-VOWL4_1rulBcLeY6O-10" style="edgeStyle=orthogonalEdgeStyle;rounded=0;orthogonalLoop=1;jettySize=auto;html=1;exitX=0;exitY=0.5;exitDx=0;exitDy=0;endArrow=none;endFill=0;" parent="1" source="hM-VOWL4_1rulBcLeY6O-5" target="hM-VOWL4_1rulBcLeY6O-2" edge="1">
          <mxGeometry relative="1" as="geometry">
            <Array as="points">
              <mxPoint x="249" y="480" />
              <mxPoint x="249" y="455" />
            </Array>
          </mxGeometry>
        </mxCell>
        <mxCell id="hM-VOWL4_1rulBcLeY6O-47" value="&amp;lt;include&amp;gt;" style="edgeStyle=orthogonalEdgeStyle;rounded=0;orthogonalLoop=1;jettySize=auto;html=1;endArrow=none;endFill=0;dashed=1;" parent="1" source="hM-VOWL4_1rulBcLeY6O-5" target="hM-VOWL4_1rulBcLeY6O-7" edge="1">
          <mxGeometry x="0.6667" y="39" relative="1" as="geometry">
            <mxPoint x="-3" y="-15" as="offset" />
          </mxGeometry>
        </mxCell>
        <mxCell id="hM-VOWL4_1rulBcLeY6O-5" value="Busca produtos por texto" style="ellipse;whiteSpace=wrap;html=1;" parent="1" vertex="1">
          <mxGeometry x="269" y="455" width="120" height="50" as="geometry" />
        </mxCell>
        <mxCell id="hM-VOWL4_1rulBcLeY6O-6" value="Administrador do sistema" style="shape=umlActor;verticalLabelPosition=bottom;verticalAlign=top;html=1;outlineConnect=0;" parent="1" vertex="1">
          <mxGeometry x="669" y="465" width="30" height="60" as="geometry" />
        </mxCell>
        <mxCell id="hM-VOWL4_1rulBcLeY6O-7" value="Visualizar detalhes produtos" style="ellipse;whiteSpace=wrap;html=1;" parent="1" vertex="1">
          <mxGeometry x="264" y="520" width="140" height="50" as="geometry" />
        </mxCell>
        <mxCell id="hM-VOWL4_1rulBcLeY6O-13" value="Transportadora" style="shape=umlActor;verticalLabelPosition=bottom;verticalAlign=top;html=1;outlineConnect=0;" parent="1" vertex="1">
          <mxGeometry x="709" y="925" width="30" height="60" as="geometry" />
        </mxCell>
        <mxCell id="hM-VOWL4_1rulBcLeY6O-15" value="Lojista" style="shape=umlActor;verticalLabelPosition=bottom;verticalAlign=top;html=1;outlineConnect=0;" parent="1" vertex="1">
          <mxGeometry x="669" y="665" width="30" height="60" as="geometry" />
        </mxCell>
        <mxCell id="hM-VOWL4_1rulBcLeY6O-16" value="Correios" style="shape=umlActor;verticalLabelPosition=bottom;verticalAlign=top;html=1;outlineConnect=0;" parent="1" vertex="1">
          <mxGeometry x="709" y="810" width="30" height="60" as="geometry" />
        </mxCell>
        <mxCell id="hM-VOWL4_1rulBcLeY6O-54" style="edgeStyle=orthogonalEdgeStyle;rounded=0;orthogonalLoop=1;jettySize=auto;html=1;exitX=1;exitY=0.5;exitDx=0;exitDy=0;endArrow=none;endFill=0;" parent="1" source="hM-VOWL4_1rulBcLeY6O-17" edge="1">
          <mxGeometry relative="1" as="geometry">
            <mxPoint x="639" y="485" as="targetPoint" />
            <Array as="points">
              <mxPoint x="559" y="390" />
              <mxPoint x="559" y="485" />
              <mxPoint x="619" y="485" />
            </Array>
          </mxGeometry>
        </mxCell>
        <mxCell id="hM-VOWL4_1rulBcLeY6O-55" style="edgeStyle=orthogonalEdgeStyle;rounded=0;orthogonalLoop=1;jettySize=auto;html=1;exitX=0;exitY=0.5;exitDx=0;exitDy=0;endArrow=none;endFill=0;" parent="1" source="hM-VOWL4_1rulBcLeY6O-17" edge="1">
          <mxGeometry relative="1" as="geometry">
            <mxPoint x="139" y="425" as="targetPoint" />
            <Array as="points">
              <mxPoint x="419" y="390" />
              <mxPoint x="419" y="375" />
              <mxPoint x="259" y="375" />
              <mxPoint x="259" y="425" />
            </Array>
          </mxGeometry>
        </mxCell>
        <mxCell id="hM-VOWL4_1rulBcLeY6O-17" value="&lt;div&gt;Criar conta&lt;/div&gt;" style="ellipse;whiteSpace=wrap;html=1;" parent="1" vertex="1">
          <mxGeometry x="434" y="375" width="90" height="30" as="geometry" />
        </mxCell>
        <mxCell id="hM-VOWL4_1rulBcLeY6O-51" style="edgeStyle=orthogonalEdgeStyle;rounded=0;orthogonalLoop=1;jettySize=auto;html=1;exitX=0;exitY=0.5;exitDx=0;exitDy=0;endArrow=none;endFill=0;" parent="1" source="hM-VOWL4_1rulBcLeY6O-22" edge="1">
          <mxGeometry relative="1" as="geometry">
            <mxPoint x="139" y="445" as="targetPoint" />
            <Array as="points">
              <mxPoint x="399" y="445" />
              <mxPoint x="399" y="445" />
            </Array>
          </mxGeometry>
        </mxCell>
        <mxCell id="hM-VOWL4_1rulBcLeY6O-52" value="&amp;lt;include&amp;gt;" style="edgeStyle=orthogonalEdgeStyle;rounded=0;orthogonalLoop=1;jettySize=auto;html=1;exitX=0.5;exitY=1;exitDx=0;exitDy=0;endArrow=none;endFill=0;dashed=1;" parent="1" source="hM-VOWL4_1rulBcLeY6O-22" target="hM-VOWL4_1rulBcLeY6O-7" edge="1">
          <mxGeometry x="-0.3256" y="-33" relative="1" as="geometry">
            <Array as="points">
              <mxPoint x="453" y="540" />
            </Array>
            <mxPoint as="offset" />
          </mxGeometry>
        </mxCell>
        <mxCell id="hM-VOWL4_1rulBcLeY6O-22" value="Consultar produtos" style="ellipse;whiteSpace=wrap;html=1;" parent="1" vertex="1">
          <mxGeometry x="404" y="425" width="120" height="40" as="geometry" />
        </mxCell>
        <mxCell id="hM-VOWL4_1rulBcLeY6O-53" style="edgeStyle=orthogonalEdgeStyle;rounded=0;orthogonalLoop=1;jettySize=auto;html=1;endArrow=none;endFill=0;" parent="1" source="hM-VOWL4_1rulBcLeY6O-23" edge="1">
          <mxGeometry relative="1" as="geometry">
            <mxPoint x="139" y="435" as="targetPoint" />
            <Array as="points">
              <mxPoint x="279" y="410" />
              <mxPoint x="279" y="435" />
            </Array>
          </mxGeometry>
        </mxCell>
        <mxCell id="hM-VOWL4_1rulBcLeY6O-23" value="Filtrar produtos por categoria" style="ellipse;whiteSpace=wrap;html=1;" parent="1" vertex="1">
          <mxGeometry x="299" y="385" width="120" height="50" as="geometry" />
        </mxCell>
        <mxCell id="hM-VOWL4_1rulBcLeY6O-57" style="edgeStyle=orthogonalEdgeStyle;rounded=0;orthogonalLoop=1;jettySize=auto;html=1;exitX=0;exitY=0.5;exitDx=0;exitDy=0;endArrow=none;endFill=0;" parent="1" source="hM-VOWL4_1rulBcLeY6O-24" edge="1">
          <mxGeometry relative="1" as="geometry">
            <mxPoint x="129" y="695" as="targetPoint" />
            <Array as="points">
              <mxPoint x="279" y="710" />
              <mxPoint x="279" y="695" />
            </Array>
          </mxGeometry>
        </mxCell>
        <mxCell id="hM-VOWL4_1rulBcLeY6O-58" style="edgeStyle=orthogonalEdgeStyle;rounded=0;orthogonalLoop=1;jettySize=auto;html=1;exitX=1;exitY=0.5;exitDx=0;exitDy=0;endArrow=none;endFill=0;" parent="1" source="hM-VOWL4_1rulBcLeY6O-24" edge="1">
          <mxGeometry relative="1" as="geometry">
            <mxPoint x="669" y="565" as="targetPoint" />
            <Array as="points">
              <mxPoint x="419" y="715" />
              <mxPoint x="379" y="715" />
              <mxPoint x="379" y="705" />
              <mxPoint x="349" y="705" />
              <mxPoint x="349" y="665" />
              <mxPoint x="669" y="665" />
            </Array>
          </mxGeometry>
        </mxCell>
        <mxCell id="hM-VOWL4_1rulBcLeY6O-59" style="edgeStyle=orthogonalEdgeStyle;rounded=0;orthogonalLoop=1;jettySize=auto;html=1;exitX=0.558;exitY=-0.067;exitDx=0;exitDy=0;endArrow=none;endFill=0;exitPerimeter=0;" parent="1" source="hM-VOWL4_1rulBcLeY6O-24" edge="1">
          <mxGeometry relative="1" as="geometry">
            <mxPoint x="659" y="705" as="targetPoint" />
            <Array as="points">
              <mxPoint x="366" y="705" />
              <mxPoint x="659" y="705" />
            </Array>
          </mxGeometry>
        </mxCell>
        <mxCell id="hM-VOWL4_1rulBcLeY6O-24" value="Acesso ao sistema" style="ellipse;whiteSpace=wrap;html=1;" parent="1" vertex="1">
          <mxGeometry x="299" y="695" width="120" height="30" as="geometry" />
        </mxCell>
        <mxCell id="hM-VOWL4_1rulBcLeY6O-56" style="edgeStyle=orthogonalEdgeStyle;rounded=0;orthogonalLoop=1;jettySize=auto;html=1;exitX=0;exitY=0.5;exitDx=0;exitDy=0;endArrow=none;endFill=0;" parent="1" source="hM-VOWL4_1rulBcLeY6O-25" edge="1">
          <mxGeometry relative="1" as="geometry">
            <mxPoint x="139" y="475" as="targetPoint" />
            <Array as="points">
              <mxPoint x="229" y="590" />
              <mxPoint x="229" y="475" />
            </Array>
          </mxGeometry>
        </mxCell>
        <mxCell id="hM-VOWL4_1rulBcLeY6O-60" value="&amp;lt;include&amp;gt;" style="edgeStyle=orthogonalEdgeStyle;rounded=0;orthogonalLoop=1;jettySize=auto;html=1;exitX=1;exitY=0.5;exitDx=0;exitDy=0;entryX=0.583;entryY=0;entryDx=0;entryDy=0;entryPerimeter=0;endArrow=none;endFill=0;dashed=1;" parent="1" source="hM-VOWL4_1rulBcLeY6O-25" target="hM-VOWL4_1rulBcLeY6O-26" edge="1">
          <mxGeometry x="0.3311" y="31" relative="1" as="geometry">
            <mxPoint as="offset" />
          </mxGeometry>
        </mxCell>
        <mxCell id="hM-VOWL4_1rulBcLeY6O-25" value="Realizar compra" style="ellipse;whiteSpace=wrap;html=1;" parent="1" vertex="1">
          <mxGeometry x="279" y="575" width="120" height="30" as="geometry" />
        </mxCell>
        <mxCell id="hM-VOWL4_1rulBcLeY6O-26" value="Realizar pagamento" style="ellipse;whiteSpace=wrap;html=1;" parent="1" vertex="1">
          <mxGeometry x="349" y="615" width="120" height="40" as="geometry" />
        </mxCell>
        <mxCell id="hM-VOWL4_1rulBcLeY6O-61" style="edgeStyle=orthogonalEdgeStyle;rounded=0;orthogonalLoop=1;jettySize=auto;html=1;exitX=0;exitY=0.5;exitDx=0;exitDy=0;endArrow=none;endFill=0;" parent="1" source="hM-VOWL4_1rulBcLeY6O-27" edge="1">
          <mxGeometry relative="1" as="geometry">
            <mxPoint x="139" y="705" as="targetPoint" />
            <Array as="points">
              <mxPoint x="239" y="750" />
              <mxPoint x="239" y="705" />
              <mxPoint x="139" y="705" />
            </Array>
          </mxGeometry>
        </mxCell>
        <mxCell id="hM-VOWL4_1rulBcLeY6O-27" value="Consultar pedidos" style="ellipse;whiteSpace=wrap;html=1;" parent="1" vertex="1">
          <mxGeometry x="269" y="735" width="120" height="30" as="geometry" />
        </mxCell>
        <mxCell id="hM-VOWL4_1rulBcLeY6O-62" style="edgeStyle=orthogonalEdgeStyle;rounded=0;orthogonalLoop=1;jettySize=auto;html=1;endArrow=none;endFill=0;" parent="1" source="hM-VOWL4_1rulBcLeY6O-28" edge="1">
          <mxGeometry relative="1" as="geometry">
            <mxPoint x="109" y="765" as="targetPoint" />
          </mxGeometry>
        </mxCell>
        <mxCell id="hM-VOWL4_1rulBcLeY6O-63" style="edgeStyle=orthogonalEdgeStyle;rounded=0;orthogonalLoop=1;jettySize=auto;html=1;exitX=1;exitY=0.5;exitDx=0;exitDy=0;endArrow=none;endFill=0;" parent="1" source="hM-VOWL4_1rulBcLeY6O-28" edge="1">
          <mxGeometry relative="1" as="geometry">
            <mxPoint x="689" y="955" as="targetPoint" />
          </mxGeometry>
        </mxCell>
        <mxCell id="uQkzH6wwBrsQ6fYfF0AR-1" style="edgeStyle=orthogonalEdgeStyle;rounded=0;orthogonalLoop=1;jettySize=auto;html=1;exitX=1;exitY=0;exitDx=0;exitDy=0;endArrow=none;endFill=0;" parent="1" source="hM-VOWL4_1rulBcLeY6O-28" edge="1">
          <mxGeometry relative="1" as="geometry">
            <mxPoint x="689" y="865" as="targetPoint" />
            <Array as="points">
              <mxPoint x="549" y="941" />
              <mxPoint x="549" y="865" />
            </Array>
          </mxGeometry>
        </mxCell>
        <mxCell id="hM-VOWL4_1rulBcLeY6O-28" value="Rastrear objeto" style="ellipse;whiteSpace=wrap;html=1;" parent="1" vertex="1">
          <mxGeometry x="369" y="935" width="120" height="40" as="geometry" />
        </mxCell>
        <mxCell id="hM-VOWL4_1rulBcLeY6O-65" style="edgeStyle=orthogonalEdgeStyle;rounded=0;orthogonalLoop=1;jettySize=auto;html=1;exitX=0;exitY=0.5;exitDx=0;exitDy=0;endArrow=none;endFill=0;" parent="1" source="hM-VOWL4_1rulBcLeY6O-32" edge="1">
          <mxGeometry relative="1" as="geometry">
            <mxPoint x="139" y="735" as="targetPoint" />
            <Array as="points">
              <mxPoint x="219" y="840" />
              <mxPoint x="219" y="735" />
            </Array>
          </mxGeometry>
        </mxCell>
        <mxCell id="hM-VOWL4_1rulBcLeY6O-67" value="&amp;lt;include&amp;gt;" style="edgeStyle=orthogonalEdgeStyle;rounded=0;orthogonalLoop=1;jettySize=auto;html=1;exitX=1;exitY=0.5;exitDx=0;exitDy=0;entryX=0.5;entryY=0;entryDx=0;entryDy=0;endArrow=none;endFill=0;dashed=1;" parent="1" source="hM-VOWL4_1rulBcLeY6O-32" target="hM-VOWL4_1rulBcLeY6O-33" edge="1">
          <mxGeometry x="-0.2907" y="-20" relative="1" as="geometry">
            <Array as="points">
              <mxPoint x="430" y="840" />
              <mxPoint x="430" y="790" />
            </Array>
            <mxPoint as="offset" />
          </mxGeometry>
        </mxCell>
        <mxCell id="hM-VOWL4_1rulBcLeY6O-32" value="Avaliar produtos" style="ellipse;whiteSpace=wrap;html=1;" parent="1" vertex="1">
          <mxGeometry x="279" y="825" width="120" height="30" as="geometry" />
        </mxCell>
        <mxCell id="mX_xieqaY8ShQNDqnQQq-1" style="edgeStyle=orthogonalEdgeStyle;rounded=0;orthogonalLoop=1;jettySize=auto;html=1;exitX=0;exitY=0.5;exitDx=0;exitDy=0;endArrow=none;endFill=0;" edge="1" parent="1" source="hM-VOWL4_1rulBcLeY6O-33">
          <mxGeometry relative="1" as="geometry">
            <mxPoint x="140" y="720" as="targetPoint" />
            <Array as="points">
              <mxPoint x="230" y="800" />
              <mxPoint x="230" y="720" />
            </Array>
          </mxGeometry>
        </mxCell>
        <mxCell id="hM-VOWL4_1rulBcLeY6O-33" value="Editar avaliação" style="ellipse;whiteSpace=wrap;html=1;" parent="1" vertex="1">
          <mxGeometry x="279" y="790" width="120" height="20" as="geometry" />
        </mxCell>
        <mxCell id="hM-VOWL4_1rulBcLeY6O-68" style="edgeStyle=orthogonalEdgeStyle;rounded=0;orthogonalLoop=1;jettySize=auto;html=1;exitX=0;exitY=0.5;exitDx=0;exitDy=0;endArrow=none;endFill=0;" parent="1" source="hM-VOWL4_1rulBcLeY6O-34" edge="1">
          <mxGeometry relative="1" as="geometry">
            <mxPoint x="139" y="675" as="targetPoint" />
            <Array as="points">
              <mxPoint x="169" y="635" />
              <mxPoint x="169" y="675" />
            </Array>
          </mxGeometry>
        </mxCell>
        <mxCell id="hM-VOWL4_1rulBcLeY6O-70" value="&amp;lt;include&amp;gt;" style="edgeStyle=orthogonalEdgeStyle;rounded=0;orthogonalLoop=1;jettySize=auto;html=1;exitX=1;exitY=0.5;exitDx=0;exitDy=0;entryX=0.417;entryY=1;entryDx=0;entryDy=0;entryPerimeter=0;endArrow=none;endFill=0;dashed=1;" parent="1" source="hM-VOWL4_1rulBcLeY6O-34" target="hM-VOWL4_1rulBcLeY6O-25" edge="1">
          <mxGeometry x="-1" y="46" relative="1" as="geometry">
            <mxPoint x="-39" y="21" as="offset" />
          </mxGeometry>
        </mxCell>
        <mxCell id="hM-VOWL4_1rulBcLeY6O-34" value="Solicitar troca" style="ellipse;whiteSpace=wrap;html=1;" parent="1" vertex="1">
          <mxGeometry x="189" y="625" width="130" height="20" as="geometry" />
        </mxCell>
        <mxCell id="hM-VOWL4_1rulBcLeY6O-71" style="edgeStyle=orthogonalEdgeStyle;rounded=0;orthogonalLoop=1;jettySize=auto;html=1;endArrow=none;endFill=0;" parent="1" source="hM-VOWL4_1rulBcLeY6O-35" edge="1">
          <mxGeometry relative="1" as="geometry">
            <mxPoint x="139" y="685" as="targetPoint" />
            <Array as="points">
              <mxPoint x="199" y="670" />
              <mxPoint x="199" y="685" />
            </Array>
          </mxGeometry>
        </mxCell>
        <mxCell id="hM-VOWL4_1rulBcLeY6O-72" value="&amp;lt;include&amp;gt;" style="edgeStyle=orthogonalEdgeStyle;rounded=0;orthogonalLoop=1;jettySize=auto;html=1;exitX=1;exitY=0.5;exitDx=0;exitDy=0;endArrow=none;endFill=0;dashed=1;" parent="1" source="hM-VOWL4_1rulBcLeY6O-35" edge="1">
          <mxGeometry x="0.8667" y="-1" relative="1" as="geometry">
            <Array as="points">
              <mxPoint x="339" y="670" />
            </Array>
            <mxPoint x="330" y="620" as="targetPoint" />
            <mxPoint as="offset" />
          </mxGeometry>
        </mxCell>
        <mxCell id="hM-VOWL4_1rulBcLeY6O-35" value="Cancelar pedido" style="ellipse;whiteSpace=wrap;html=1;" parent="1" vertex="1">
          <mxGeometry x="209" y="655" width="120" height="30" as="geometry" />
        </mxCell>
        <mxCell id="hM-VOWL4_1rulBcLeY6O-73" style="edgeStyle=orthogonalEdgeStyle;rounded=0;orthogonalLoop=1;jettySize=auto;html=1;exitX=1;exitY=0.5;exitDx=0;exitDy=0;endArrow=none;endFill=0;" parent="1" source="hM-VOWL4_1rulBcLeY6O-38" edge="1">
          <mxGeometry relative="1" as="geometry">
            <mxPoint x="649" y="728" as="targetPoint" />
            <Array as="points">
              <mxPoint x="649" y="728" />
            </Array>
          </mxGeometry>
        </mxCell>
        <mxCell id="hM-VOWL4_1rulBcLeY6O-38" value="Manter produtos" style="ellipse;whiteSpace=wrap;html=1;" parent="1" vertex="1">
          <mxGeometry x="449" y="715" width="120" height="25" as="geometry" />
        </mxCell>
        <mxCell id="hM-VOWL4_1rulBcLeY6O-74" style="edgeStyle=orthogonalEdgeStyle;rounded=0;orthogonalLoop=1;jettySize=auto;html=1;exitX=0;exitY=0.5;exitDx=0;exitDy=0;endArrow=none;endFill=0;" parent="1" source="hM-VOWL4_1rulBcLeY6O-39" edge="1">
          <mxGeometry relative="1" as="geometry">
            <mxPoint x="119" y="765" as="targetPoint" />
            <Array as="points">
              <mxPoint x="119" y="905" />
            </Array>
          </mxGeometry>
        </mxCell>
        <mxCell id="hM-VOWL4_1rulBcLeY6O-39" value="Manter conta usuário" style="ellipse;whiteSpace=wrap;html=1;" parent="1" vertex="1">
          <mxGeometry x="229" y="885" width="120" height="40" as="geometry" />
        </mxCell>
        <mxCell id="hM-VOWL4_1rulBcLeY6O-75" style="edgeStyle=orthogonalEdgeStyle;rounded=0;orthogonalLoop=1;jettySize=auto;html=1;exitX=1;exitY=0.5;exitDx=0;exitDy=0;endArrow=none;endFill=0;" parent="1" source="hM-VOWL4_1rulBcLeY6O-40" edge="1">
          <mxGeometry relative="1" as="geometry">
            <mxPoint x="649" y="565" as="targetPoint" />
            <Array as="points">
              <mxPoint x="649" y="575" />
            </Array>
          </mxGeometry>
        </mxCell>
        <mxCell id="hM-VOWL4_1rulBcLeY6O-40" value="Manter conta lojista" style="ellipse;whiteSpace=wrap;html=1;" parent="1" vertex="1">
          <mxGeometry x="453" y="555" width="120" height="40" as="geometry" />
        </mxCell>
        <mxCell id="hM-VOWL4_1rulBcLeY6O-76" style="edgeStyle=orthogonalEdgeStyle;rounded=0;orthogonalLoop=1;jettySize=auto;html=1;exitX=1;exitY=0.5;exitDx=0;exitDy=0;endArrow=none;endFill=0;" parent="1" source="hM-VOWL4_1rulBcLeY6O-41" edge="1">
          <mxGeometry relative="1" as="geometry">
            <mxPoint x="629" y="515" as="targetPoint" />
            <Array as="points">
              <mxPoint x="639" y="515" />
            </Array>
          </mxGeometry>
        </mxCell>
        <mxCell id="hM-VOWL4_1rulBcLeY6O-41" value="&lt;div&gt;Consultar log acesso&lt;/div&gt;" style="ellipse;whiteSpace=wrap;html=1;" parent="1" vertex="1">
          <mxGeometry x="459" y="495" width="120" height="40" as="geometry" />
        </mxCell>
      </root>
    </mxGraphModel>
  </diagram>
</mxfile>
